<svg width="26" height="22" viewBox="0 0 26 22" fill="none" xmlns="http://www.w3.org/2000/svg">
<path d="M13.014 7.992C13.014 9.752 12.6987 11.226 12.068 12.414C11.452 13.602 10.5573 14.4967 9.384 15.098C8.21067 15.6993 6.80267 16 5.16 16H0.848V0.291999H5.6C7.12533 0.291999 8.44533 0.585332 9.56 1.172C10.6747 1.75867 11.5253 2.624 12.112 3.768C12.7133 4.89733 13.014 6.30533 13.014 7.992ZM9.934 8.08C9.934 6.83333 9.76533 5.80667 9.428 5C9.10533 4.19333 8.614 3.59933 7.954 3.218C7.30867 2.822 6.50933 2.624 5.556 2.624H3.796V13.646H5.226C6.81 13.646 7.99067 13.184 8.768 12.26C9.54533 11.3213 9.934 9.928 9.934 8.08ZM19.5569 3.856C20.2903 3.856 20.9283 4.00267 21.4709 4.296C22.0136 4.58933 22.4683 5.02933 22.8349 5.616H22.9229L23.1869 4.076H25.6509V16.088C25.6509 17.2173 25.4456 18.1633 25.0349 18.926C24.6243 19.7033 24.0083 20.29 23.1869 20.686C22.3803 21.082 21.3536 21.28 20.1069 21.28C19.2709 21.28 18.5083 21.2213 17.8189 21.104C17.1443 21.0013 16.4989 20.818 15.8829 20.554V18.266C16.3083 18.4567 16.7409 18.618 17.1809 18.75C17.6356 18.8967 18.1049 19.0067 18.5889 19.08C19.0729 19.1533 19.5863 19.19 20.1289 19.19C20.9796 19.19 21.6249 18.9333 22.0649 18.42C22.5196 17.9067 22.7469 17.1733 22.7469 16.22V15.912C22.7469 15.692 22.7543 15.4353 22.7689 15.142C22.7983 14.8487 22.8203 14.614 22.8349 14.438H22.7469C22.3949 15.054 21.9549 15.5087 21.4269 15.802C20.8989 16.0807 20.2609 16.22 19.5129 16.22C18.1783 16.22 17.1223 15.6773 16.3449 14.592C15.5823 13.5067 15.2009 11.996 15.2009 10.06C15.2009 8.75467 15.3769 7.64 15.7289 6.716C16.0809 5.792 16.5796 5.088 17.2249 4.604C17.8849 4.10533 18.6623 3.856 19.5569 3.856ZM20.4369 6.122C19.9383 6.122 19.5203 6.276 19.1829 6.584C18.8603 6.87733 18.6109 7.31733 18.4349 7.904C18.2589 8.49067 18.1709 9.224 18.1709 10.104C18.1709 11.3947 18.3616 12.37 18.7429 13.03C19.1243 13.69 19.6963 14.02 20.4589 14.02C20.8989 14.02 21.2729 13.9613 21.5809 13.844C21.8889 13.712 22.1383 13.5067 22.3289 13.228C22.5196 12.9347 22.6663 12.568 22.7689 12.128C22.8716 11.6733 22.9229 11.1307 22.9229 10.5V10.082C22.9229 9.12867 22.8349 8.366 22.6589 7.794C22.4976 7.20733 22.2336 6.782 21.8669 6.518C21.5003 6.254 21.0236 6.122 20.4369 6.122Z" fill="white"/>
</svg>
