<svg width="21" height="24" viewBox="0 0 21 24" fill="none" xmlns="http://www.w3.org/2000/svg">
<path d="M4.08 4.36C3.52267 4.36 3.06067 4.19133 2.694 3.854C2.342 3.502 2.166 3.06933 2.166 2.556C2.166 2.04267 2.342 1.61733 2.694 1.28C3.06067 0.927999 3.52267 0.751999 4.08 0.751999C4.62267 0.751999 5.07 0.927999 5.422 1.28C5.774 1.61733 5.95 2.04267 5.95 2.556C5.95 3.06933 5.774 3.502 5.422 3.854C5.07 4.19133 4.62267 4.36 4.08 4.36ZM5.598 20.002C5.598 21.3513 5.26067 22.3193 4.586 22.906C3.926 23.5073 2.97267 23.808 1.726 23.808H0.362V21.19H1.242C1.71133 21.19 2.04133 21.0947 2.232 20.904C2.42267 20.728 2.518 20.4347 2.518 20.024V5.812H5.598V20.002ZM17.353 10.124C18.2184 10.2853 18.9297 10.718 19.487 11.422C20.0444 12.126 20.323 12.9327 20.323 13.842C20.323 14.6633 20.1177 15.3893 19.707 16.02C19.311 16.636 18.7317 17.12 17.969 17.472C17.2064 17.824 16.3044 18 15.263 18H8.64105V2.644H14.977C16.0184 2.644 16.913 2.81267 17.661 3.15C18.4237 3.48733 18.9957 3.95667 19.377 4.558C19.773 5.15933 19.971 5.84133 19.971 6.604C19.971 7.49867 19.729 8.24667 19.245 8.848C18.7757 9.44933 18.145 9.87467 17.353 10.124ZM11.721 8.98H14.537C15.2704 8.98 15.835 8.81867 16.231 8.496C16.627 8.15867 16.825 7.682 16.825 7.066C16.825 6.45 16.627 5.97333 16.231 5.636C15.835 5.29867 15.2704 5.13 14.537 5.13H11.721V8.98ZM14.823 15.492C15.571 15.492 16.1504 15.316 16.561 14.964C16.9864 14.612 17.199 14.1133 17.199 13.468C17.199 12.808 16.979 12.2947 16.539 11.928C16.099 11.5467 15.505 11.356 14.757 11.356H11.721V15.492H14.823Z" fill="white"/>
</svg>
