<svg width="215" height="100" viewBox="0 0 215 100" fill="none" xmlns="http://www.w3.org/2000/svg">
<path d="M32.4568 92.9335L42.6613 80.3121C43.5246 79.2443 43.9956 77.9128 43.9956 76.5397L43.9956 36.5858C43.9956 35.1308 44.5243 33.7254 45.4832 32.6312L62.6833 13.0054C65.2347 10.0942 69.8343 10.3251 72.0813 13.4772L89.5433 37.9725" stroke="#FFC265" stroke-width="5" stroke-linecap="round"/>
<path d="M32.4568 92.9335L32.4568 36.2876C32.4568 34.8874 32.9465 33.5312 33.8412 32.4541L49.9226 13.0919C52.4627 10.0335 57.2208 10.2464 59.4777 13.5193L73.2534 33.497C74.1568 34.8072 75.5438 35.7047 77.109 35.9922L89.5433 38.2761" stroke="#1DA599" stroke-width="5" stroke-linecap="round"/>
<path d="M58.1432 89.9335L61.3432 70.9335C61.6632 69.0401 62.1432 67.4535 62.7832 66.1735C63.4499 64.8935 64.3032 63.8535 65.3432 63.0535C66.4099 62.2535 67.6765 61.6801 69.1432 61.3335C70.6365 60.9868 72.3699 60.8135 74.3432 60.8135C75.4099 60.8135 76.5165 60.8801 77.6632 61.0135C78.8365 61.1201 79.9565 61.2935 81.0232 61.5335L81.1032 62.0135C80.9965 62.5201 80.9165 63.1735 80.8632 63.9735C80.8365 64.7735 80.8232 65.5868 80.8232 66.4135C80.8232 67.2135 80.8232 67.8801 80.8232 68.4135V89.9335H75.1032V67.9335C75.1032 67.2401 75.1165 66.6135 75.1432 66.0535C75.1965 65.4668 75.2765 64.9335 75.3832 64.4535L76.1832 65.9335C75.8632 65.8268 75.4499 65.7601 74.9432 65.7335C74.4632 65.6801 73.9832 65.6535 73.5032 65.6535C72.0365 65.6535 70.8632 65.8535 69.9832 66.2535C69.1299 66.6268 68.4765 67.2135 68.0232 68.0135C67.5699 68.8135 67.2365 69.8268 67.0232 71.0535L63.9032 89.9335H58.1432ZM62.7832 81.9735V77.2535H77.6632V81.9735H62.7832ZM87.6385 89.9335V66.2935C87.6385 65.7601 87.6252 65.0801 87.5985 64.2535C87.5985 63.4001 87.5719 62.5735 87.5185 61.7735C87.4652 60.9735 87.3719 60.3335 87.2385 59.8535L87.3585 59.5335H93.2385V89.9335H87.6385ZM109.826 89.9335V61.1335H114.426L129.666 76.8535V84.5335L113.906 68.2535L115.506 67.6135V89.9335H109.826ZM127.546 89.9335V61.1335H133.226V89.9335H127.546ZM148.541 90.4135C145.208 90.4135 142.688 89.8668 140.981 88.7735C139.301 87.6801 138.461 85.9068 138.461 83.4535C138.461 81.8801 138.848 80.5868 139.621 79.5735C140.421 78.5601 141.528 77.8135 142.941 77.3335C144.381 76.8268 146.035 76.5735 147.901 76.5735C149.048 76.5735 150.048 76.6668 150.901 76.8535C151.755 77.0135 152.528 77.1868 153.221 77.3735V80.9735C152.688 80.7868 152.008 80.6268 151.181 80.4935C150.355 80.3335 149.555 80.2535 148.781 80.2535C147.048 80.2535 145.755 80.4935 144.901 80.9735C144.075 81.4535 143.661 82.2668 143.661 83.4135C143.661 84.5068 144.075 85.2935 144.901 85.7735C145.728 86.2535 146.915 86.4935 148.461 86.4935C149.395 86.4935 150.288 86.4135 151.141 86.2535C152.021 86.0668 152.795 85.7868 153.461 85.4135L152.661 86.9735C152.555 86.6535 152.461 86.3335 152.381 86.0135C152.301 85.6935 152.235 85.3601 152.181 85.0135C152.155 84.6668 152.128 84.2801 152.101 83.8535C152.101 83.4001 152.101 82.8535 152.101 82.2135V76.7335C152.101 75.3735 151.888 74.3468 151.461 73.6535C151.035 72.9601 150.408 72.5068 149.581 72.2935C148.755 72.0535 147.728 71.9335 146.501 71.9335C145.381 71.9335 144.301 72.0535 143.261 72.2935C142.221 72.5068 141.381 72.7601 140.741 73.0535H140.341V68.6135C141.301 68.2668 142.381 68.0135 143.581 67.8535C144.781 67.6668 145.981 67.5735 147.181 67.5735C148.675 67.5735 150.048 67.7068 151.301 67.9735C152.581 68.2401 153.688 68.7068 154.621 69.3735C155.555 70.0401 156.275 70.9868 156.781 72.2135C157.315 73.4135 157.581 74.9735 157.581 76.8935V81.9335C157.581 82.4935 157.581 83.2001 157.581 84.0535C157.608 84.8801 157.648 85.6935 157.701 86.4935C157.755 87.2935 157.835 87.9335 157.941 88.4135L157.821 88.7335C156.915 89.0801 155.928 89.3868 154.861 89.6535C153.821 89.8935 152.755 90.0801 151.661 90.2135C150.568 90.3468 149.528 90.4135 148.541 90.4135ZM162.608 84.4135H162.928C163.888 84.8135 165.008 85.1601 166.288 85.4535C167.594 85.7468 168.901 85.8935 170.208 85.8935C170.661 85.8935 171.154 85.8801 171.688 85.8535C172.221 85.8001 172.714 85.7068 173.168 85.5735C173.648 85.4401 174.034 85.2001 174.328 84.8535C174.648 84.5068 174.808 84.0401 174.808 83.4535C174.808 82.7068 174.501 82.1868 173.888 81.8935C173.274 81.6001 172.328 81.3468 171.048 81.1335L169.168 80.8135C167.034 80.4401 165.394 79.8001 164.248 78.8935C163.101 77.9601 162.528 76.5868 162.528 74.7735C162.528 73.4668 162.874 72.2801 163.568 71.2135C164.288 70.1468 165.394 69.3068 166.888 68.6935C168.408 68.0535 170.394 67.7335 172.848 67.7335C173.994 67.7335 175.048 67.8135 176.008 67.9735C176.994 68.1068 177.928 68.3068 178.808 68.5735V73.1735H178.488C177.474 72.7735 176.501 72.4935 175.568 72.3335C174.634 72.1735 173.674 72.0935 172.688 72.0935C171.194 72.0935 170.021 72.2801 169.168 72.6535C168.341 73.0001 167.928 73.6268 167.928 74.5335C167.928 75.2268 168.234 75.7201 168.848 76.0135C169.488 76.3068 170.408 76.5601 171.608 76.7735L173.448 77.0935C174.701 77.2801 175.834 77.6135 176.848 78.0935C177.888 78.5735 178.714 79.2401 179.328 80.0935C179.941 80.9201 180.248 81.9868 180.248 83.2935C180.248 85.6135 179.381 87.3601 177.648 88.5335C175.941 89.6801 173.354 90.2535 169.888 90.2535C168.608 90.2535 167.328 90.1468 166.048 89.9335C164.768 89.7201 163.621 89.4535 162.608 89.1335V84.4135ZM185.021 89.9335V75.9735C185.021 75.4401 185.008 74.7601 184.981 73.9335C184.955 73.0801 184.915 72.2535 184.861 71.4535C184.835 70.6268 184.755 69.9735 184.621 69.4935L184.741 69.1735C185.488 68.9068 186.355 68.6668 187.341 68.4535C188.355 68.2401 189.408 68.0801 190.501 67.9735C191.621 67.8401 192.741 67.7735 193.861 67.7735C194.341 67.7735 194.861 67.7868 195.421 67.8135C195.981 67.8401 196.541 67.8935 197.101 67.9735V72.5335H196.741C196.341 72.4268 195.888 72.3601 195.381 72.3335C194.875 72.2801 194.381 72.2535 193.901 72.2535C193.048 72.2535 192.208 72.3201 191.381 72.4535C190.555 72.5868 189.848 72.7468 189.261 72.9335L190.101 71.6535C190.448 72.3735 190.621 73.6135 190.621 75.3735V89.9335H185.021Z" fill="#1DA599"/>
</svg>
