<svg width="42" height="42" viewBox="0 0 42 42" fill="none" xmlns="http://www.w3.org/2000/svg">
<rect width="42" height="42" rx="6" fill="#CDFFF3"/>
<path d="M22.9631 18.8153H26.3295C26.3011 16.0952 24.1349 14.2557 20.7543 14.2557C17.4304 14.2557 15.0369 16.0668 15.0582 18.7727C15.0511 20.9815 16.5994 22.2244 19.1136 22.7997L20.6335 23.1548C22.2315 23.5241 22.9489 23.9574 22.9631 24.7741C22.9489 25.6619 22.1179 26.2798 20.7045 26.2798C19.1491 26.2798 18.1264 25.5554 18.0483 24.1562H14.6818C14.7244 27.5582 17.0895 29.1847 20.7472 29.1847C24.3693 29.1847 26.5142 27.544 26.5284 24.7812C26.5142 22.4588 24.9446 21.0384 22.0753 20.4062L20.8253 20.1222C19.5043 19.8381 18.6662 19.3977 18.6946 18.5312C18.7017 17.7358 19.3835 17.1605 20.7472 17.1605C22.1179 17.1605 22.8707 17.7784 22.9631 18.8153Z" fill="black"/>
</svg>
